<svg width="36" height="42" viewBox="0 0 36 42" fill="none" xmlns="http://www.w3.org/2000/svg">
<path d="M12.3536 35.6464L12.2071 35.5H12H4C2.06614 35.5 0.5 33.9339 0.5 32V4C0.5 2.06614 2.06614 0.5 4 0.5H32C33.9339 0.5 35.5 2.06614 35.5 4V32C35.5 33.9339 33.9339 35.5 32 35.5H24H23.7929L23.6464 35.6464L18 41.2929L12.3536 35.6464ZM30 28.5H30.5V28V26.2C30.5 25.0182 29.9059 24.0082 29.0311 23.1806C28.1589 22.3553 26.9742 21.6769 25.6936 21.139C23.1343 20.0641 20.0686 19.5 18 19.5C15.9314 19.5 12.8657 20.0641 10.3064 21.139C9.02576 21.6769 7.84112 22.3553 6.96886 23.1806C6.09414 24.0082 5.5 25.0182 5.5 26.2V28V28.5H6H30ZM23.9 12C23.9 8.74386 21.2561 6.1 18 6.1C14.7439 6.1 12.1 8.74386 12.1 12C12.1 15.2561 14.7439 17.9 18 17.9C21.2561 17.9 23.9 15.2561 23.9 12Z" fill="#414141" stroke="#414141"/>
</svg>
